#!OML:ASF H:\ManfredETheater\Project 1\Capture day 1\Session 1\subject.ASF
:FULLY-SPECIFIED
:DEGREES
203
root 0.463322 16.4141 -30.0769 -156.835 -4.4511 180.205
lowerback 17.9646 -1.19536 2.7982
upperback -0.890599 -0.843825 2.92586
thorax -11.1075 -0.532218 1.87082
lowerneck -18.6609 -1.2288 -2.07593
upperneck -4.30596 -0.0912463 -1.51393
head 1.79197 0.390805 -0.120941
rclavicle 6.75868e-015 -2.62396e-014
rhumerus -40.5132 8.28489 -93.5
rradius 100.229
rwrist -7.52435
rhand -25.7288 6.31766
rfingers 7.12502
rthumb 0.807663 -23.6606
lclavicle 6.75868e-015 -2.62396e-014
lhumerus -54.2231 -9.698 97.6132
lradius 84.6743
lwrist 8.12799
lhand -27.2764 -22.1515
lfingers 7.12502
lthumb -0.687008 7.82717
rfemur -38.9788 2.84692 25.1383
rtibia 57.5489
rfoot -12.9978 -42.419
rtoes 61.9507
lfemur -36.4514 4.23068 -14.2548
ltibia 87.9932
lfoot 2.13638 -14.7375
ltoes -1.11869
204
root 0.448574 16.4203 -30.5024 -156.632 -4.31008 180.638
lowerback 17.6869 -0.983732 3.10258
upperback -1.02908 -0.50274 2.89701
thorax -11.1103 -0.388931 1.56967
lowerneck -18.9846 -1.34796 -1.98513
upperneck -3.71312 -0.297088 -1.43907
head 2.05373 0.259529 -0.127592
rclavicle 2.8625e-014 -4.77083e-015
rhumerus -38.9542 9.97174 -93.8069
rradius 103.504
rwrist -7.18341
rhand -25.4658 7.02956
rfingers 7.12502
rthumb 1.06164 -22.9475
lclavicle 2.8625e-014 -4.77083e-015
lhumerus -57.7022 -10.4738 97.7875
lradius 87.5936
lwrist 8.98421
lhand -26.603 -22.1363
lfingers 7.12502
lthumb -0.0366298 7.84344
rfemur -36.6015 2.72259 25.7047
rtibia 55.7799
rfoot -13.4681 -42.5567
rtoes 62.1281
lfemur -40.1174 5.64317 -14.0932
ltibia 90.2018
lfoot -0.27178 -14.3965
ltoes -2.92959
205
root 0.435707 16.4277 -30.936 -156.405 -4.25398 180.991
lowerback 17.3036 -0.748374 3.33391
upperback -1.19836 -0.149248 2.8564
thorax -11.0819 -0.234795 1.29415
lowerneck -19.2685 -0.338379 -2.37231
upperneck -3.02021 -0.869425 -1.36976
head 2.33903 -0.892265 -0.116389
rclavicle -1.74931e-014 7.15625e-014
rhumerus -37.5728 11.5453 -93.8898
rradius 106.974
rwrist -6.94754
rhand -25.3099 7.8328
rfingers 7.12502
rthumb 1.2123 -22.1435
lclavicle -1.74931e-014 7.15625e-014
lhumerus -61.3718 -11.4471 98.1451
lradius 90.9424
lwrist 9.92261
lhand -25.8206 -21.954
lfingers 7.12502
lthumb 0.719017 8.02451
rfemur -34.1329 2.51384 26.197
rtibia 53.7929
rfoot -13.7568 -42.5713
rtoes 62.3034
lfemur -43.85 6.87974 -14.1157
ltibia 91.9774
lfoot -2.49519 -13.9776
ltoes -4.58559
206
root 0.4236 16.4388 -31.3795 -156.201 -4.29177 181.271
lowerback 16.8621 -0.487978 3.51304
upperback -1.38364 0.22319 2.80981
thorax -11.0334 -0.0683733 1.03931
lowerneck -19.5297 -0.679223 -2.39101
upperneck -2.2951 -1.223 -1.19545
head 2.64477 -1.03597 -0.0890273
rclavicle -7.55382e-015 -5.725e-014
rhumerus -36.355 12.9652 -93.7109
rradius 110.544
rwrist -6.67622
rhand -25.3216 8.63341
rfingers 7.12502
rthumb 1.20095 -21.343
lclavicle -7.55382e-015 -5.725e-014
lhumerus -65.1265 -12.4806 98.6411
lradius 94.5055
lwrist 10.8221
lhand -24.993 -21.6558
lfingers 7.12502
lthumb 1.51833 8.31851
rfemur -31.4945 2.23108 26.6212
rtibia 51.5551
rfoot -13.7796 -42.4325
rtoes 62.4895
lfemur -47.5464 7.88534 -14.3071
ltibia 93.2709
lfoot -4.50437 -13.5363
ltoes -5.88891
207
root 0.410997 16.4561 -31.8345 -156.062 -4.40925 181.496
lowerback 16.4014 -0.200082 3.6651
upperback -1.57272 0.623654 2.75982
thorax -10.9734 0.11273 0.792879
lowerneck -19.7551 -1.09621 -2.48107
upperneck -1.51435 -1.65857 -0.995647
head 2.9691 -1.21563 -0.0492628
rclavicle 9.93923e-015 2.38542e-015
rhumerus -35.2844 14.2044 -93.2513
rradius 114.11
rwrist -6.27858
rhand -25.5453 9.41377
rfingers 7.12502
rthumb 0.984936 -20.5637
lclavicle 9.93923e-015 2.38542e-015
lhumerus -68.885 -13.4734 99.2129
lradius 98.1275
lwrist 11.6235
lhand -24.157 -21.2455
lfingers 7.12502
lthumb 2.32576 8.72154
rfemur -28.6371 1.91473 26.9858
rtibia 49.0469
rfoot -13.4673 -42.0889
rtoes 62.6866
lfemur -51.1111 8.64119 -14.6329
ltibia 94.0487
lfoot -6.30137 -13.1377
ltoes -6.81868
208
root 0.39723 16.4802 -32.3003 -156 -4.60253 181.663
lowerback 15.9475 0.109244 3.79386
upperback -1.75932 1.04592 2.70509
thorax -10.9104 0.305252 0.553622
lowerneck -19.9201 -1.57729 -2.64304
upperneck -0.711955 -2.16492 -0.775356
head 3.2966 -1.42738 0.00227361
rclavicle 1.15295e-014 4.53229e-014
rhumerus -34.3377 15.2419 -92.5059
rradius 117.574
rwrist -5.74871
rhand -25.9639 10.1582
rfingers 7.12502
rthumb 0.580578 -19.8208
lclavicle 1.15295e-014 4.53229e-014
lhumerus -72.5761 -14.3462 99.792
lradius 101.696
lwrist 12.2882
lhand -23.3487 -20.7431
lfingers 7.12502
lthumb 3.10634 9.21402
rfemur -25.5557 1.58493 27.2858
rtibia 46.2665
rfoot -12.7247 -41.4794
rtoes 62.9017
lfemur -54.4845 9.12467 -15.0668
ltibia 94.2966
lfoot -7.91015 -12.824
ltoes -7.51208
209
root 0.380661 16.511 -32.7763 -156.028 -4.85574 181.8
lowerback 15.5248 0.431398 3.93986
upperback -1.93255 1.4868 2.64564
thorax -10.8457 0.504969 0.299619
lowerneck -20.3181 -2.12103 -2.92181
upperneck 0.622679 -2.72182 -0.484797
head 3.3779 -1.66469 0.0652833
rclavicle 1.70955e-014 -8.74653e-015
rhumerus -33.4766 16.0754 -91.4927
rradius 120.846
rwrist -5.15944
rhand -26.5786 10.8674
rfingers 7.12502
rthumb -0.0131291 -19.1123
lclavicle 1.70955e-014 -8.74653e-015
lhumerus -76.1214 -15.0384 100.307
lradius 105.12
lwrist 12.8277
lhand -22.6482 -20.154
lfingers 7.12502
lthumb 3.78287 9.7922
rfemur -22.2583 1.26474 27.542
rtibia 43.2312
rfoot -11.4727 -40.5317
rtoes 63.1452
lfemur -57.6131 9.34938 -15.5549
ltibia 94.0168
lfoot -9.354 -12.6203
ltoes -8.13367
210
root 0.360568 16.5484 -33.2615 -156.15 -5.12984 181.907
lowerback 15.1524 0.76076 4.09049
upperback -2.08277 1.93692 2.57271
thorax -10.7792 0.70832 0.0302902
lowerneck -20.4063 -2.66157 -3.17142
upperneck 1.45943 -3.30115 -0.239476
head 3.66503 -1.91179 0.122934
rclavicle 6.75868e-015 1.35174e-014
rhumerus -32.665 16.7091 -90.2497
rradius 123.83
rwrist -4.60663
rhand -27.3653 11.5141
rfingers 7.12502
rthumb -0.772949 -18.4642
lclavicle 6.75868e-015 1.35174e-014
lhumerus -79.4526 -15.5057 100.68
lradius 108.33
lwrist 13.3133
lhand -22.087 -19.4954
lfingers 7.12502
lthumb 4.3248 10.4404
rfemur -18.7722 0.978554 27.7381
rtibia 39.9802
rfoot -9.68755 -39.1817
rtoes 63.4114
lfemur -60.4409 9.34555 -16.0776
ltibia 93.2184
lfoot -10.625 -12.5317
ltoes -8.75321
